<svg width="154" height="58" viewBox="0 0 154 58" fill="none" xmlns="http://www.w3.org/2000/svg">
<rect width="153" height="58" fill="white"/>
<path d="M0 0H96.7595L126 58H0V0Z" fill="#DA291C"/>
<path d="M79.9347 34.2534H87.8694L89.1623 37.2799H78.448L76.735 40.7635H72L83.7324 17.8442H87.0129L98.7453 40.7635H94.0265L85.3807 23.0617L79.9347 34.2534Z" fill="white"/>
<path d="M134.585 17.8456L134.231 18.4585L152.356 28.9143L152.71 28.3014L134.585 17.8456Z" fill="black"/>
<path d="M152.353 28.321L134.233 38.7852L134.587 39.3979L152.707 28.9337L152.353 28.321Z" fill="black"/>
<path d="M142.592 18.1118H141.783V39.036H142.592V18.1118Z" fill="black"/>
<path d="M142.087 39.8447H134V17.3032H142.087C148.354 17.3032 153.408 22.3574 153.408 28.6245C153.408 34.8917 148.354 39.8447 142.087 39.8447ZM135.617 38.2274H142.087C147.444 38.2274 151.791 33.8808 151.791 28.5234C151.791 23.166 147.444 18.9206 142.087 18.9206H135.617V38.2274Z" fill="black"/>
</svg>
